<svg xmlns="http://www.w3.org/2000/svg" xmlns:xlink="http://www.w3.org/1999/xlink" width="189.426" height="43.52" viewBox="0 0 189.426 43.52">
  <defs>
    <clipPath id="clip-path">
      <rect id="Rectangle_32" data-name="Rectangle 32" width="167.384" height="26.855" fill="none"/>
    </clipPath>
  </defs>
  <g id="Group_69" data-name="Group 69" transform="translate(-86 -43)">
    <rect id="Rectangle_31" data-name="Rectangle 31" width="189.426" height="43.52" transform="translate(86 43)" fill="none"/>
    <g id="Group_67" data-name="Group 67" transform="translate(97.159 50.811)">
      <g id="Group_66" data-name="Group 66" transform="translate(0 0)" clip-path="url(#clip-path)">
        <path id="Path_1" data-name="Path 1" d="M5.209,26.051A8.828,8.828,0,0,1,1.4,23.718a5.029,5.029,0,0,1-1.4-3.5q0-2.645,3.473-2.8a5.853,5.853,0,0,0,2.359,4.018,7.986,7.986,0,0,0,4.691,1.323,10,10,0,0,0,4.511-.829,2.662,2.662,0,0,0,1.607-2.488,2.939,2.939,0,0,0-1.426-2.593A17.331,17.331,0,0,0,9.9,15.087a35.248,35.248,0,0,1-5.651-1.711A7.02,7.02,0,0,1,1.14,11.017,6.491,6.491,0,0,1,.1,7.206,5.957,5.957,0,0,1,1.348,3.5,8.23,8.23,0,0,1,4.847.934,13.534,13.534,0,0,1,10.057,0a17.49,17.49,0,0,1,5.159.726A9.3,9.3,0,0,1,19,2.826a4.3,4.3,0,0,1,1.426,3.187q0,2.54-3.836,2.7A4.832,4.832,0,0,0,14.7,5.289a7.232,7.232,0,0,0-4.484-1.244A7.39,7.39,0,0,0,6.428,4.9,2.553,2.553,0,0,0,4.977,7.155,2.4,2.4,0,0,0,6.3,9.358a18.055,18.055,0,0,0,4.537,1.477q5.546,1.141,8.14,3.085a6.444,6.444,0,0,1,2.592,5.47,6.261,6.261,0,0,1-2.929,5.495q-2.93,1.972-8.166,1.97a16.539,16.539,0,0,1-5.262-.8" transform="translate(0 0)" fill="#fff"/>
        <path id="Path_2" data-name="Path 2" d="M35.321,25.611a9.923,9.923,0,0,1-3.992-3.421,8.585,8.585,0,0,1-1.451-4.873V9.9a8.8,8.8,0,0,1,1.529-5.055,10.682,10.682,0,0,1,4.07-3.55,12.631,12.631,0,0,1,11.043-.052,9.932,9.932,0,0,1,3.94,3.448,8.9,8.9,0,0,1,1.452,5V12.91a2.018,2.018,0,0,1-.7,1.529,2.386,2.386,0,0,1-1.685.648L34.906,17.16v-.1a5.38,5.38,0,0,0,1.555,4.018A6.248,6.248,0,0,0,41.024,22.6a6.778,6.778,0,0,0,4.536-1.321,4.4,4.4,0,0,0,1.529-3.5,4.859,4.859,0,0,1,3.059.6,2.489,2.489,0,0,1,1.192,2.255,4.258,4.258,0,0,1-1.425,3.032,10.42,10.42,0,0,1-3.784,2.307,14.5,14.5,0,0,1-5.106.882,12.794,12.794,0,0,1-5.7-1.245M47.193,11.2V9.7a5.072,5.072,0,0,0-1.711-3.966A6.439,6.439,0,0,0,41.024,4.2a6.342,6.342,0,0,0-4.433,1.53A5.107,5.107,0,0,0,34.906,9.7v3.576Z" transform="translate(-3.231 0)" fill="#fff"/>
        <path id="Path_3" data-name="Path 3" d="M75.94,2.178A2.806,2.806,0,0,1,77.288.545,4.519,4.519,0,0,1,79.518,0a6.472,6.472,0,0,1,1.192.129,5.33,5.33,0,0,1,1.037.285L72,25.195a2.351,2.351,0,0,1-.985,1.193,3.011,3.011,0,0,1-1.66.466,3.146,3.146,0,0,1-1.659-.441,2.208,2.208,0,0,1-.985-1.219L56.966.415a4.08,4.08,0,0,1,.985-.285A6.465,6.465,0,0,1,59.143,0a4.631,4.631,0,0,1,2.281.545,2.616,2.616,0,0,1,1.3,1.633L69.1,19.959" transform="translate(-6.16 0)" fill="#fff"/>
        <path id="Path_4" data-name="Path 4" d="M92.23,25.611a9.922,9.922,0,0,1-3.992-3.421,8.585,8.585,0,0,1-1.451-4.873V9.9a8.8,8.8,0,0,1,1.529-5.055,10.682,10.682,0,0,1,4.07-3.55,12.631,12.631,0,0,1,11.043-.052,9.931,9.931,0,0,1,3.94,3.448,8.9,8.9,0,0,1,1.452,5V12.91a2.018,2.018,0,0,1-.7,1.529,2.386,2.386,0,0,1-1.685.648L91.815,17.16v-.1a5.38,5.38,0,0,0,1.555,4.018A6.248,6.248,0,0,0,97.933,22.6a6.778,6.778,0,0,0,4.536-1.321,4.4,4.4,0,0,0,1.529-3.5,4.859,4.859,0,0,1,3.059.6,2.489,2.489,0,0,1,1.192,2.255,4.258,4.258,0,0,1-1.425,3.032,10.42,10.42,0,0,1-3.784,2.307,14.5,14.5,0,0,1-5.106.882,12.794,12.794,0,0,1-5.7-1.245M104.1,11.2V9.7a5.072,5.072,0,0,0-1.711-3.966A6.439,6.439,0,0,0,97.933,4.2,6.342,6.342,0,0,0,93.5,5.729,5.107,5.107,0,0,0,91.815,9.7v3.576Z" transform="translate(-9.385 0)" fill="#fff"/>
        <path id="Path_5" data-name="Path 5" d="M125.94,1.348A10.284,10.284,0,0,1,131.306,0a8.746,8.746,0,0,1,6.585,2.514,8.894,8.894,0,0,1,2.437,6.455v14.36a2.994,2.994,0,0,1-1.27,2.67,6.994,6.994,0,0,1-3.863.855V9.591a5.088,5.088,0,0,0-1.348-3.681,5.222,5.222,0,0,0-3.94-1.4,7.536,7.536,0,0,0-3.421.8,6.624,6.624,0,0,0-2.541,2.152,5.079,5.079,0,0,0-.933,2.955V23.329a2.981,2.981,0,0,1-1.27,2.7,7.3,7.3,0,0,1-3.914.829V4.2q0-4.2,4.977-4.2V3.266Z" transform="translate(-12.742 0)" fill="#fff"/>
        <path id="Path_6" data-name="Path 6" d="M164.272,11.472a3.674,3.674,0,1,0-3.627-4.136,3.6,3.6,0,0,0-.046.462,3.6,3.6,0,0,0,.046.463,3.661,3.661,0,0,0,3.627,3.212" transform="translate(-17.367 -0.446)" fill="#b5d336"/>
        <path id="Path_7" data-name="Path 7" d="M154.39,20.044a7.206,7.206,0,0,1,2.8-6.017,7.506,7.506,0,0,1-2.038-2.85,37.45,37.45,0,0,0-2.555,4.738,37.369,37.369,0,0,0-2.084,6.257,26.417,26.417,0,0,0-.922,5.892H161.3a8.8,8.8,0,0,1-1.844-.539,8.127,8.127,0,0,1-5.064-7.481" transform="translate(-16.177 -1.209)" fill="#b5d336"/>
        <path id="Path_8" data-name="Path 8" d="M164.29,17.028a3.662,3.662,0,0,0-3.644,3.377c-.008.1-.03.2-.03.3s.022.2.03.3a3.665,3.665,0,1,0,3.644-3.971" transform="translate(-17.369 -1.842)" fill="#b5d336"/>
        <path id="Path_9" data-name="Path 9" d="M174.275,19.6l0-1.633,5.129-.021a2.659,2.659,0,0,0-.223,1.067,2.951,2.951,0,0,0,3.054,2.836,3.227,3.227,0,0,0,3.054-2.836s1.133-4.173-6.158-3.711V11.192s6.112.969,6.158-3.586a3.062,3.062,0,0,0-6.107,0,2.615,2.615,0,0,0,.027.376l-4.959.027,0-.693A7.6,7.6,0,0,1,180.975,0h-14.86c4.011.563,7.083,3.666,7.083,7.426a7.152,7.152,0,0,1-2.539,5.391,7.393,7.393,0,0,1,2.648,6.178,7.935,7.935,0,0,1-6.736,7.86h14.273a7.556,7.556,0,0,1-6.569-7.259" transform="translate(-17.964 0)" fill="#b5d336"/>
      </g>
    </g>
  </g>
</svg>
